<svg id="SvgjsG1048" xmlns="http://www.w3.org/2000/svg" xmlns:xlink="http://www.w3.org/1999/xlink" width="300.001" height="72.082" viewBox="0 0 300.001 72.082">
  <defs>
    <linearGradient id="linear-gradient" x1="0.114" y1="0.11" x2="1.103" y2="1.09" gradientUnits="objectBoundingBox">
      <stop offset="0" stop-color="#0077fd"/>
      <stop offset="1" stop-color="#003e83"/>
    </linearGradient>
  </defs>
  <g id="SvgjsG1049" transform="translate(-0.513 -0.682)">
    <path id="Path_21" data-name="Path 21" d="M34.519,1.272l27.4,15.817a4.407,4.407,0,0,1,2.2,3.816V52.54a4.407,4.407,0,0,1-2.2,3.816l-27.4,15.817a4.407,4.407,0,0,1-4.407,0L2.717,56.356a4.407,4.407,0,0,1-2.2-3.816V20.906a4.407,4.407,0,0,1,2.2-3.816l27.4-15.817a4.407,4.407,0,0,1,4.407,0Z" fill="url(#linear-gradient)"/>
  </g>
  <g id="SvgjsG1050" transform="translate(12.581 16.819)">
    <path id="Path_22" data-name="Path 22" d="M19.222,2.691A16.531,16.531,0,1,1,2.691,19.222,16.554,16.554,0,0,1,19.222,2.691m0-.769a17.3,17.3,0,1,0,17.3,17.3A17.3,17.3,0,0,0,19.222,1.922Z" fill="#fff"/>
    <path id="Path_23" data-name="Path 23" d="M23.72,15.646,22.3,20.337l-.115.384h-8a2.333,2.333,0,0,1-.192-.423l-1.422-4.652H23.72m1-.769H11.533l1.73,5.651c.192.615.423.961.961.961h8.5l.269-.961,1.422-4.69Z" fill="#fff"/>
    <circle id="Ellipse_5" data-name="Ellipse 5" cx="0.73" cy="0.73" r="0.73" transform="translate(14.032 24.911)" fill="#fff"/>
    <circle id="Ellipse_6" data-name="Ellipse 6" cx="0.73" cy="0.73" r="0.73" transform="translate(20.183 24.911)" fill="#fff"/>
    <path id="Path_24" data-name="Path 24" d="M20.375,24.181h-6.92V23.22h6.92c.73,0,.923-.192,1.038-.615l.192-.615c.423-1.269,1.269-3.96,1.73-5.574.538-1.961,1.307-4.344,1.307-4.344l.115-.346H26.91v.961h-1.5c-.231.73-.769,2.5-1.192,4-.461,1.615-1.307,4.306-1.73,5.613l-.192.615a1.773,1.773,0,0,1-1.922,1.269Z" fill="#fff"/>
  </g>
  <g id="SvgjsG1051" transform="translate(192.247 50.472)">
    <path id="Path_25" data-name="Path 25" d="M-82.322-28.863a2.8,2.8,0,0,0-3.054,2.468l-2.635,12.758q-.167.837-.376,2.384t-.251,1.841h-.46q-.335-2.886-.586-4.183l-2.719-12.8a2.8,2.8,0,0,0-3.054-2.468h-7.027q-2.719,0-2.844,2.8l-1,26.06h7.195l.753-22.881h.669L-94.16-6.735a2.816,2.816,0,0,0,3.1,2.426h4.434a2.76,2.76,0,0,0,3.054-2.426l3.514-16.146h.669L-78.473,0h7.195l-1.046-26.06q-.125-2.8-2.844-2.8Zm27.566-.586q-7.278,0-10.1,3.158t-2.824,11.859q0,8.7,2.824,11.859t10.1,3.158A17.943,17.943,0,0,0-47.1-.732a8.171,8.171,0,0,0,4.016-4.559,25.478,25.478,0,0,0,1.3-9.14,25.478,25.478,0,0,0-1.3-9.14A8.171,8.171,0,0,0-47.1-28.131,17.943,17.943,0,0,0-54.756-29.448Zm0,6.024q2.761,0,3.723,1.841t.962,7.153q0,5.312-.962,7.153t-3.723,1.841q-2.761,0-3.723-1.841t-.962-7.153q0-5.312.962-7.153T-54.756-23.425ZM-20.5-15.1a5.284,5.284,0,0,0,3.932-1.841,7.72,7.72,0,0,0,1.213-4.727q0-4.392-2.3-5.961T-25.893-29.2q-7.739,0-11.754.335V0q4.434.335,13.093.335,5.48,0,7.822-1.61t2.342-5.919a8.981,8.981,0,0,0-1.422-5.48A6.243,6.243,0,0,0-20.5-14.85ZM-29.95-17.36v-6.316h3.639a4.464,4.464,0,0,1,2.761.607,3.25,3.25,0,0,1,.711,2.489,3.63,3.63,0,0,1-.669,2.573,3.8,3.8,0,0,1-2.593.648Zm0,12.131v-7.32h3.932a4.36,4.36,0,0,1,3.012.753q.753.753.753,3.054A4.032,4.032,0,0,1-22.986-5.9a4.372,4.372,0,0,1-2.949.711ZM-2.635,0V-28.863h-7.78V0Zm14.6-12.34L18.74,0h8.7L20.329-12.173a7.16,7.16,0,0,0-2.677-2.719v-.125a6.864,6.864,0,0,0,2.342-2.468L26.98-28.863h-8.45L11.922-17.611H9.956a17.935,17.935,0,0,0,.335-3.6v-7.655H2.468V0H10.29V-9.663a12.1,12.1,0,0,0-.335-2.677Zm33.8,5.48L47.477,0h8.031L47.645-26.813a2.729,2.729,0,0,0-.983-1.485,2.7,2.7,0,0,0-1.694-.565H37.689a2.7,2.7,0,0,0-1.694.565,2.524,2.524,0,0,0-.941,1.485L27.148,0h8.031l1.715-6.86ZM44.3-12.549h-5.94l1.841-7.4q.293-1.422.586-3.012h1.129q.084.837.544,3.012ZM82.113,0,79.728-8.91a5.09,5.09,0,0,0-4.434-4.434v-.251q5.689-.627,5.689-6.986,0-4.894-2.635-6.8t-8.868-1.9q-7.571,0-11.671.418V0h7.739V-10.876H69.1a2.991,2.991,0,0,1,1.82.46,2.922,2.922,0,0,1,.9,1.715L73.872,0ZM65.548-16.607V-23.55h3.765a4.559,4.559,0,0,1,2.991.711,3.731,3.731,0,0,1,.774,2.761,3.731,3.731,0,0,1-.774,2.761,4.559,4.559,0,0,1-2.991.711ZM107.755-22.8v-6.065H83.284V-22.8h8.282V0H99.43V-22.8Z" fill="#fff"/>
  </g>
</svg>
